<svg width="299" height="214" viewBox="0 0 299 214" fill="none" xmlns="http://www.w3.org/2000/svg">
<path d="M218.875 136.614C218.727 136.011 218.494 135.483 218.176 135.028C217.858 134.562 217.46 134.17 216.983 133.852C216.517 133.523 215.972 133.278 215.347 133.119C214.733 132.949 214.057 132.864 213.318 132.864C211.727 132.864 210.369 133.244 209.244 134.006C208.131 134.767 207.279 135.864 206.688 137.295C206.108 138.727 205.818 140.455 205.818 142.477C205.818 144.523 206.097 146.273 206.654 147.727C207.21 149.182 208.04 150.295 209.142 151.068C210.244 151.841 211.614 152.227 213.25 152.227C214.693 152.227 215.892 152.017 216.847 151.597C217.813 151.176 218.534 150.58 219.012 149.807C219.489 149.034 219.727 148.125 219.727 147.08L221.364 147.25H213.387V140.5H228.864V145.341C228.864 148.523 228.188 151.244 226.835 153.506C225.494 155.756 223.642 157.483 221.279 158.688C218.926 159.881 216.227 160.477 213.182 160.477C209.784 160.477 206.801 159.756 204.233 158.312C201.665 156.869 199.659 154.812 198.216 152.142C196.784 149.472 196.068 146.295 196.068 142.614C196.068 139.727 196.506 137.17 197.381 134.943C198.267 132.716 199.494 130.835 201.063 129.301C202.631 127.756 204.443 126.591 206.5 125.807C208.557 125.011 210.762 124.614 213.114 124.614C215.182 124.614 217.102 124.909 218.875 125.5C220.659 126.08 222.233 126.909 223.597 127.989C224.972 129.057 226.08 130.324 226.921 131.79C227.762 133.256 228.273 134.864 228.455 136.614H218.875ZM230.883 160V125.091H256.042V132.727H240.36V138.727H254.746V146.364H240.36V152.364H255.974V160H230.883ZM257.388 132.727V125.091H287.729V132.727H277.229V160H267.888V132.727H257.388Z" fill="#EE7100"/>
<path d="M29.9321 202L35.7276 167.091H47.0628C49.1765 167.091 50.898 167.466 52.2276 168.216C53.5685 168.966 54.5003 170.017 55.023 171.369C55.5458 172.722 55.6537 174.295 55.3469 176.091C55.1083 177.5 54.6708 178.75 54.0344 179.841C53.4094 180.92 52.631 181.818 51.6992 182.534C50.7674 183.239 49.739 183.733 48.614 184.017L48.5969 184.222C49.7787 184.324 50.8242 184.75 51.7333 185.5C52.6424 186.239 53.3071 187.244 53.7276 188.517C54.1594 189.79 54.2333 191.267 53.9492 192.949C53.6537 194.733 53.006 196.307 52.006 197.67C51.006 199.023 49.6821 200.085 48.0344 200.858C46.3867 201.619 44.4378 202 42.1878 202H29.9321ZM32.4037 200.023H42.5287C45.1537 200.023 47.2787 199.364 48.9037 198.045C50.5287 196.727 51.523 195.028 51.8867 192.949C52.1253 191.483 51.9946 190.17 51.4946 189.011C51.006 187.852 50.2049 186.937 49.0912 186.267C47.989 185.585 46.6424 185.244 45.0515 185.244H34.8583L32.4037 200.023ZM35.1992 183.301H45.1367C46.6026 183.301 47.9094 182.977 49.0571 182.33C50.2049 181.682 51.1424 180.812 51.8696 179.722C52.5969 178.631 53.0628 177.42 53.2674 176.091C53.631 173.92 53.2503 172.21 52.1253 170.96C51.0003 169.699 49.1992 169.068 46.7219 169.068H37.5174L35.1992 183.301ZM66.0339 202.545C63.8521 202.545 62.0055 201.96 60.4941 200.79C58.9941 199.608 57.9259 197.983 57.2896 195.915C56.6532 193.847 56.5566 191.483 56.9998 188.824C57.4316 186.233 58.2839 183.932 59.5566 181.92C60.8407 179.898 62.4089 178.312 64.2612 177.165C66.1134 176.006 68.1021 175.426 70.2271 175.426C72.4203 175.426 74.2668 176.023 75.7668 177.216C77.2782 178.398 78.3521 180.028 78.9884 182.108C79.6248 184.176 79.7328 186.534 79.3123 189.182C78.8805 191.761 78.0168 194.062 76.7214 196.085C75.4373 198.097 73.8691 199.676 72.0168 200.824C70.1646 201.972 68.1703 202.545 66.0339 202.545ZM66.068 200.619C67.9316 200.619 69.6475 200.097 71.2157 199.051C72.7839 198.006 74.0964 196.591 75.1532 194.807C76.2214 193.023 76.9316 191.028 77.2839 188.824C77.6362 186.687 77.585 184.756 77.1305 183.028C76.6759 181.29 75.8634 179.915 74.693 178.903C73.5225 177.881 72.0396 177.369 70.2441 177.369C68.3918 177.369 66.6759 177.898 65.0964 178.955C63.5282 180.011 62.21 181.432 61.1418 183.216C60.0737 185 59.3634 186.989 59.0112 189.182C58.6475 191.307 58.693 193.239 59.1475 194.977C59.6134 196.705 60.4316 198.08 61.6021 199.102C62.7839 200.114 64.2725 200.619 66.068 200.619ZM80.4879 202L84.8516 175.818H86.88L86.1982 179.909H86.3857C87.1584 178.568 88.2947 177.494 89.7947 176.688C91.2947 175.869 92.9084 175.46 94.6357 175.46C94.8288 175.46 95.0107 175.46 95.1811 175.46C95.3516 175.46 95.522 175.466 95.6925 175.477L95.3345 177.574C95.1982 177.562 95.0334 177.545 94.8402 177.523C94.6584 177.489 94.4311 177.472 94.1584 177.472C92.7038 177.472 91.3572 177.784 90.1186 178.409C88.88 179.034 87.8459 179.898 87.0163 181C86.1868 182.091 85.6584 183.341 85.4311 184.75L82.5675 202H80.4879ZM101.142 202.545C99.0286 202.545 97.2843 201.966 95.9093 200.807C94.5343 199.648 93.5854 198.051 93.0627 196.017C92.54 193.972 92.4945 191.625 92.9263 188.977C93.3695 186.352 94.1934 184.023 95.3979 181.989C96.6025 179.943 98.0854 178.341 99.8468 177.182C101.608 176.011 103.534 175.426 105.625 175.426C107.125 175.426 108.381 175.716 109.392 176.295C110.415 176.864 111.222 177.619 111.813 178.562C112.415 179.506 112.824 180.54 113.04 181.665H113.245L115.665 167.091H117.727L111.932 202H109.904L110.858 196.29H110.62C110.017 197.415 109.262 198.455 108.352 199.409C107.443 200.352 106.387 201.114 105.182 201.693C103.977 202.261 102.631 202.545 101.142 202.545ZM101.466 200.619C103.239 200.619 104.858 200.114 106.324 199.102C107.79 198.08 109.017 196.693 110.006 194.943C110.995 193.182 111.676 191.187 112.051 188.96C112.426 186.733 112.421 184.75 112.034 183.011C111.659 181.261 110.926 179.886 109.835 178.886C108.745 177.875 107.313 177.369 105.54 177.369C103.745 177.369 102.12 177.881 100.665 178.903C99.2104 179.915 97.9945 181.295 97.0172 183.045C96.04 184.795 95.3695 186.767 95.0059 188.96C94.6422 191.153 94.6366 193.131 94.9888 194.892C95.3525 196.653 96.0741 198.051 97.1536 199.085C98.2332 200.108 99.6707 200.619 101.466 200.619ZM131.052 175.818L130.728 177.676H119.308L119.615 175.818H131.052ZM124.507 169.545H126.569L122.24 195.812C122.058 196.881 122.115 197.756 122.41 198.438C122.717 199.108 123.177 199.608 123.791 199.938C124.416 200.256 125.126 200.415 125.922 200.415C126.274 200.415 126.592 200.386 126.876 200.33C127.16 200.261 127.444 200.187 127.728 200.108L127.916 202C127.564 202.125 127.189 202.227 126.791 202.307C126.393 202.386 125.933 202.426 125.41 202.426C124.319 202.426 123.331 202.182 122.444 201.693C121.569 201.205 120.905 200.494 120.45 199.562C120.007 198.631 119.899 197.506 120.126 196.188L124.507 169.545ZM140.422 202.545C138.059 202.545 136.099 201.96 134.542 200.79C132.985 199.619 131.9 198.017 131.286 195.983C130.672 193.949 130.582 191.631 131.013 189.028C131.445 186.415 132.309 184.085 133.604 182.04C134.9 179.994 136.485 178.381 138.36 177.199C140.235 176.017 142.258 175.426 144.428 175.426C145.894 175.426 147.229 175.722 148.434 176.312C149.65 176.903 150.672 177.75 151.502 178.852C152.332 179.943 152.905 181.267 153.224 182.824C153.542 184.381 153.542 186.131 153.224 188.074L152.985 189.369H132.258L132.582 187.477H151.212C151.53 185.591 151.44 183.886 150.94 182.364C150.44 180.83 149.61 179.614 148.451 178.716C147.303 177.818 145.894 177.369 144.224 177.369C142.519 177.369 140.894 177.864 139.349 178.852C137.815 179.83 136.496 181.136 135.394 182.773C134.303 184.409 133.576 186.21 133.212 188.176L133.008 189.233C132.644 191.483 132.69 193.466 133.144 195.182C133.61 196.886 134.474 198.222 135.735 199.188C136.996 200.142 138.644 200.619 140.678 200.619C142.099 200.619 143.36 200.381 144.462 199.903C145.576 199.415 146.519 198.824 147.292 198.131C148.076 197.437 148.69 196.767 149.133 196.119L150.854 196.886C150.332 197.761 149.582 198.636 148.604 199.511C147.627 200.375 146.451 201.097 145.076 201.676C143.701 202.256 142.15 202.545 140.422 202.545ZM159.129 185.023L156.317 202H154.237L158.601 175.818H160.629L159.948 179.96H160.152C160.97 178.608 162.129 177.523 163.629 176.705C165.129 175.886 166.811 175.477 168.675 175.477C170.425 175.477 171.908 175.852 173.124 176.602C174.34 177.352 175.209 178.42 175.732 179.807C176.254 181.182 176.357 182.824 176.038 184.733L173.158 202H171.078L173.942 184.818C174.305 182.591 173.953 180.801 172.885 179.449C171.828 178.085 170.215 177.403 168.044 177.403C166.578 177.403 165.215 177.722 163.953 178.358C162.703 178.994 161.652 179.886 160.8 181.034C159.948 182.17 159.391 183.5 159.129 185.023ZM182.852 185.023L180.039 202H177.96L182.323 175.818H184.352L183.67 179.96H183.875C184.693 178.608 185.852 177.523 187.352 176.705C188.852 175.886 190.534 175.477 192.397 175.477C194.147 175.477 195.63 175.852 196.846 176.602C198.062 177.352 198.931 178.42 199.454 179.807C199.977 181.182 200.079 182.824 199.761 184.733L196.88 202H194.801L197.664 184.818C198.028 182.591 197.676 180.801 196.608 179.449C195.551 178.085 193.937 177.403 191.767 177.403C190.301 177.403 188.937 177.722 187.676 178.358C186.426 178.994 185.375 179.886 184.522 181.034C183.67 182.17 183.113 183.5 182.852 185.023ZM201.785 202L206.148 175.818H208.211L203.847 202H201.785ZM208.16 171.165C207.671 171.165 207.262 171 206.932 170.67C206.614 170.33 206.478 169.915 206.523 169.426C206.546 169.017 206.728 168.659 207.069 168.352C207.41 168.045 207.802 167.892 208.245 167.892C208.733 167.892 209.137 168.062 209.455 168.403C209.773 168.733 209.915 169.136 209.881 169.614C209.847 170.034 209.66 170.398 209.319 170.705C208.989 171.011 208.603 171.165 208.16 171.165ZM228.763 181.46L226.768 181.938C226.598 180.972 226.291 180.148 225.848 179.466C225.405 178.773 224.791 178.244 224.007 177.881C223.234 177.506 222.263 177.318 221.092 177.318C219.126 177.318 217.45 177.807 216.064 178.784C214.678 179.761 213.859 181.023 213.609 182.568C213.405 183.795 213.643 184.807 214.325 185.602C215.007 186.398 216.16 187.006 217.785 187.426L221.672 188.432C223.649 188.943 225.064 189.784 225.916 190.955C226.78 192.125 227.07 193.557 226.785 195.25C226.558 196.693 225.962 197.966 224.996 199.068C224.041 200.159 222.825 201.011 221.348 201.625C219.871 202.239 218.223 202.545 216.405 202.545C213.95 202.545 212.03 201.972 210.643 200.824C209.257 199.665 208.513 198.011 208.41 195.864L210.473 195.455C210.553 197.148 211.109 198.437 212.143 199.324C213.178 200.199 214.649 200.636 216.558 200.636C218.729 200.636 220.564 200.119 222.064 199.085C223.564 198.051 224.445 196.733 224.706 195.131C224.899 193.937 224.678 192.937 224.041 192.131C223.405 191.324 222.337 190.733 220.837 190.358L216.865 189.335C214.797 188.801 213.314 187.949 212.416 186.778C211.53 185.597 211.229 184.153 211.513 182.449C211.751 181.062 212.32 179.841 213.217 178.784C214.126 177.727 215.274 176.903 216.66 176.312C218.047 175.722 219.575 175.426 221.246 175.426C223.484 175.426 225.217 175.955 226.445 177.011C227.672 178.057 228.445 179.54 228.763 181.46Z" fill="#072D35"/>
<path d="M162.001 90.0002C146.345 90.0002 132.752 98.9994 126.19 112.123L53.5362 39.4732L53.7237 39.2857L72.5043 20.5061C99.847 -6.83536 144.158 -6.83536 171.501 20.5061C192.469 41.4731 197.344 72.4704 186.125 98.0933C179.438 92.9999 171.063 90.0002 162.001 90.0002ZM47.4114 47.4725L122.659 122.716C122.221 125.06 122.003 127.497 122.003 129.997C122.003 137.246 123.94 144.027 127.284 149.901C126.346 149.964 125.377 149.995 124.409 149.995H123.565C112.972 149.995 102.784 145.777 95.2847 138.277L92.2223 135.215C88.1287 131.122 81.4102 131.34 77.5978 135.746L59.5672 156.557C57.7548 158.651 55.1299 159.901 52.38 159.994C49.6301 160.088 46.9114 159.026 44.9428 157.057L34.9431 147.058C32.9744 145.089 31.912 142.402 32.0057 139.652C32.0995 136.902 33.3494 134.278 35.4431 132.465L56.2549 114.436C60.6297 110.623 60.8797 103.905 56.7861 99.8119L53.7237 96.7496C46.224 89.219 42.0054 79.0324 42.0054 68.4395V67.5958C42.0054 60.4715 43.9115 53.5658 47.4114 47.5038V47.4725ZM162.001 159.994C145.439 159.994 132.002 146.558 132.002 129.997C132.002 113.436 145.439 99.9993 162.001 99.9993C178.563 99.9993 192 113.436 192 129.997C192 146.558 178.563 159.994 162.001 159.994Z" fill="#072D35"/>
</svg>
